<?xml version="1.0" standalone="no"?>
<!DOCTYPE svg PUBLIC "-//W3C//DTD SVG 20010904//EN"
 "http://www.w3.org/TR/2001/REC-SVG-20010904/DTD/svg10.dtd">
<svg version="1.0" xmlns="http://www.w3.org/2000/svg"
 width="512.000000pt" height="512.000000pt" viewBox="0 0 512.000000 512.000000"
 preserveAspectRatio="xMidYMid meet">
<metadata>
Created by potrace 1.11, written by Peter Selinger 2001-2013
</metadata>
<g transform="translate(0.000000,512.000000) scale(0.100000,-0.100000)"
fill="#000000" stroke="none">
<path d="M3932 4801 c-127 -138 -193 -162 -333 -121 l-47 14 -65 -52 c-130
-104 -218 -121 -320 -63 l-57 32 -27 -21 c-33 -26 -98 -111 -125 -164 -32 -62
-110 -132 -175 -156 -117 -44 -139 -45 -245 -16 -52 14 -112 26 -132 26 -75 0
-125 -45 -151 -135 -22 -78 -85 -213 -126 -270 -64 -89 -121 -103 -242 -61
-75 27 -132 65 -142 95 -10 33 23 80 80 117 51 32 55 37 55 73 0 47 -11 57
-75 64 -28 3 -63 11 -77 18 -34 15 -58 65 -58 117 0 29 -7 49 -24 69 l-24 28
-32 -30 c-46 -43 -110 -136 -170 -247 -74 -135 -83 -143 -178 -143 -74 0 -77
-1 -80 -25 -7 -48 16 -95 64 -130 64 -45 88 -101 79 -180 -7 -56 -6 -59 24
-86 38 -34 40 -66 5 -93 -35 -28 -73 -26 -118 4 -20 14 -41 25 -45 25 -4 0
-25 -27 -45 -59 -44 -73 -111 -133 -164 -149 -90 -27 -163 -9 -292 71 -63 40
-76 45 -88 33 -12 -12 -10 -23 13 -74 26 -59 27 -63 15 -125 -17 -82 -10 -101
30 -92 48 10 135 -13 170 -45 54 -50 35 -111 -61 -191 -135 -113 -135 -122 6
-212 58 -38 75 -72 57 -120 -10 -27 -8 -43 12 -107 49 -152 43 -287 -15 -389
-52 -91 -150 -141 -276 -141 l-63 0 0 -34 c0 -57 61 -159 168 -281 54 -62 64
-67 130 -76 91 -13 174 -98 212 -218 46 -146 12 -259 -89 -292 -41 -14 -50
-24 -44 -49 6 -22 44 -40 88 -40 60 0 258 -29 340 -50 126 -32 257 -101 331
-173 56 -56 63 -67 69 -112 3 -27 9 -68 13 -90 7 -39 8 -40 47 -38 24 2 90 27
165 63 69 33 138 60 153 60 16 0 77 -27 139 -62 117 -64 191 -83 235 -60 11 6
37 42 57 81 56 107 123 152 226 154 104 2 247 -90 300 -192 17 -35 25 -41 53
-41 17 0 51 -9 75 -20 67 -31 110 -40 120 -27 5 7 16 44 25 82 20 89 47 150
97 216 75 100 155 148 329 198 57 16 108 34 114 40 6 6 4 42 -7 105 -14 86
-14 103 -1 167 24 111 83 179 158 179 92 1 175 65 191 148 8 47 50 98 120 145
34 22 89 66 122 96 34 31 98 76 143 101 98 54 108 77 68 157 -14 27 -33 91
-42 143 -10 52 -21 99 -24 103 -4 4 -17 -31 -29 -78 -54 -211 -131 -285 -299
-285 -48 0 -68 6 -105 29 -74 47 -102 92 -106 173 -3 52 -9 72 -23 81 -23 17
-39 59 -39 105 0 42 7 56 33 65 11 4 17 17 17 39 0 41 21 74 53 82 19 4 25 16
36 70 7 36 26 86 42 111 29 46 34 70 23 113 -5 17 -14 22 -39 22 -40 0 -57 19
-59 67 -1 36 1 38 51 56 28 11 54 26 58 34 7 20 -23 71 -84 142 -64 73 -81
110 -81 169 0 64 41 145 91 181 21 16 66 36 101 46 35 9 71 24 81 33 21 19 23
72 3 72 -8 0 -28 11 -43 24 -27 24 -27 26 -13 53 24 43 108 101 167 114 50 12
52 13 59 53 3 23 13 53 20 68 15 29 19 128 6 128 -4 0 -43 -32 -87 -71 -60
-53 -84 -69 -100 -64 -11 3 -38 8 -60 11 -57 9 -69 -8 -63 -88 4 -55 2 -66
-19 -91 -12 -16 -23 -38 -23 -50 0 -53 -11 -65 -61 -76 -81 -18 -100 -14 -140
25 l-37 36 -108 2 c-60 1 -115 3 -123 6 -9 3 -17 -11 -26 -45 -21 -80 -93
-122 -153 -91 -20 11 -42 39 -70 94 -35 69 -39 84 -32 119 8 48 0 68 -40 88
-27 14 -30 14 -44 -7 -9 -12 -16 -41 -17 -63 0 -39 -1 -41 -67 -73 -79 -38
-85 -39 -125 -10 -25 18 -49 24 -107 26 -84 5 -100 14 -133 77 -22 44 -34 151
-23 210 9 49 82 126 149 160 66 32 117 32 208 -2 l72 -26 47 26 c53 30 119 35
180 13 31 -11 38 -10 69 11 28 19 47 23 111 23 89 0 89 0 144 105 20 39 66
104 102 145 79 90 101 131 120 219 15 70 19 211 6 211 -4 0 -44 -40 -90 -89z
m-1352 -1262 c47 -5 130 -22 185 -36 556 -144 900 -525 989 -1093 48 -307 18
-528 -104 -775 -68 -139 -125 -217 -243 -335 -200 -202 -475 -343 -777 -401
-101 -20 -339 -17 -438 4 -350 77 -656 274 -854 552 -60 84 -137 235 -166 325
-92 281 -88 649 9 910 148 398 505 709 951 830 140 38 247 43 448 19z"/>
<path d="M4587 2743 c-21 -25 -67 -131 -67 -157 0 -30 43 -101 60 -101 11 0
19 25 31 90 8 50 21 107 28 127 7 21 10 42 6 48 -10 16 -40 12 -58 -7z"/>
</g>
</svg>
